<svg xmlns="http://www.w3.org/2000/svg" xmlns:xlink="http://www.w3.org/1999/xlink" width="500" zoomAndPan="magnify" viewBox="0 0 375 374.999991" height="500" preserveAspectRatio="xMidYMid meet" version="1.2"><defs><clipPath id="70b1e484c9"><path d="M 187.5 0 C 83.945312 0 0 83.945312 0 187.5 C 0 291.054688 83.945312 375 187.5 375 C 291.054688 375 375 291.054688 375 187.5 C 375 83.945312 291.054688 0 187.5 0 Z M 187.5 0 "/></clipPath></defs><g id="2d592174ae"><g clip-rule="nonzero" clip-path="url(#70b1e484c9)"><rect x="0" width="375" y="0" height="374.999991" style="fill:#000000;fill-opacity:1;stroke:none;"/></g><g style="fill:#ffffff;fill-opacity:1;"><g transform="translate(87.91706, 135.331137)"><path style="stroke:none" d="M 187.546875 143.671875 L 158.046875 162.21875 L 96.859375 59.171875 L 36.3125 162.21875 L 6.484375 142.75 L 80.796875 23.171875 L 112.9375 23.171875 Z M 187.546875 143.671875 "/></g></g><g style="fill:#ffffff;fill-opacity:1;"><g transform="translate(83.610159, 35.472149)"><path style="stroke:none" d="M 195.65625 149.890625 L 164.875 169.234375 L 101.0625 61.734375 L 37.875 169.234375 L 6.765625 148.921875 L 84.296875 24.171875 L 117.8125 24.171875 Z M 195.65625 149.890625 "/></g></g></g></svg>